<svg width="137" height="32" viewBox="0 0 137 32" fill="none" xmlns="http://www.w3.org/2000/svg">
<g clip-path="url(#clip0_248_19244)">
<g clip-path="url(#clip1_248_19244)">
<path d="M40.6068 4H42.7193V12.6632H46.78V14.4615H40.6055V4H40.6068ZM47.7399 11.6444V6.74325H49.7183V10.7446C49.7183 12.093 50.0027 12.9928 51.1717 12.9928C52.3407 12.9928 52.9997 11.9289 52.9997 10.5942V6.74188H54.9932V12.1668C54.9932 12.9764 54.9932 13.8161 55.0684 14.4602H53.1953C53.1652 14.1456 53.1351 13.6957 53.1351 13.1856H53.105C52.6101 13.9802 51.8157 14.6393 50.4525 14.6393C48.8186 14.6393 47.7399 13.455 47.7399 11.6417V11.6444ZM56.3427 12.7822C59.2194 9.50017 60.1792 8.52513 60.4636 8.24068H56.4781V6.74188H62.7415V8.34598C60.0288 11.494 59.0102 12.5579 58.6206 12.9477H62.8769V14.4615H56.3427V12.7822ZM63.5537 10.5641C63.5537 8.24068 65.0973 6.56274 67.4203 6.56274C69.7433 6.56274 70.807 7.89607 70.807 10.6844C70.807 10.8048 70.792 11.0591 70.7769 11.1644H65.6073C65.6374 12.3487 66.5958 13.1132 67.9904 13.1132C68.845 13.1132 69.5942 12.8889 70.2382 12.4841L70.2683 14.1333C69.6093 14.4479 68.7247 14.6434 67.7512 14.6434C65.219 14.6434 63.555 13.1597 63.555 10.5668L63.5537 10.5641ZM68.9626 9.78462C68.9626 8.52513 68.3336 7.98633 67.3437 7.98633C66.4591 7.98633 65.6798 8.5853 65.5758 9.78462H68.9626ZM72.1606 9.03521C72.1606 8.22564 72.1455 7.38598 72.0854 6.74188H73.9736C74.0037 7.0865 74.0337 7.79077 74.0337 8.2106H74.0638C74.4685 7.1918 75.1877 6.56137 76.2815 6.56137C76.5208 6.56137 76.7314 6.57641 76.9405 6.65162L76.8954 8.3747C76.6712 8.29949 76.4606 8.2694 76.2063 8.2694C74.8582 8.2694 74.1978 9.30325 74.1978 11.3121V14.4602H72.1592V9.03385L72.1606 9.03521ZM78.0002 9.14051C78.0002 8.39111 77.9851 7.5665 77.925 6.74188H79.8282C79.8583 7.07145 79.8884 7.62667 79.8884 8.03145H79.9185C80.4872 7.10154 81.3719 6.56274 82.4807 6.56274C84.5343 6.56274 85.2535 7.89607 85.2535 9.96513V14.4615H83.2751V10.7446C83.2751 9.26085 83.1999 8.16684 81.8818 8.16684C81.2228 8.16684 80.6226 8.57162 80.3081 9.1706C80.0839 9.60547 79.9786 10.2044 79.9786 10.9689V14.4615H78.0002V9.14051ZM86.5934 10.5641C86.5934 8.24068 88.1371 6.56274 90.4601 6.56274C92.7831 6.56274 93.8468 7.89607 93.8468 10.6844C93.8468 10.8048 93.8317 11.0591 93.8167 11.1644H88.6471C88.6772 12.3487 89.6356 13.1132 91.0302 13.1132C91.8848 13.1132 92.634 12.8889 93.278 12.4841L93.3081 14.1333C92.6491 14.4479 91.7644 14.6434 90.7909 14.6434C88.2588 14.6434 86.5948 13.1597 86.5948 10.5668L86.5934 10.5641ZM92.0037 9.78462C92.0037 8.52513 91.3748 7.98633 90.3849 7.98633C89.5003 7.98633 88.7209 8.5853 88.617 9.78462H92.0037ZM95.2017 9.03521C95.2017 8.22564 95.1867 7.38598 95.1265 6.74188H97.0147C97.0448 7.0865 97.0749 7.79077 97.0749 8.2106H97.105C97.5097 7.1918 98.2289 6.56137 99.3227 6.56137C99.562 6.56137 99.7725 6.57641 99.9817 6.65162L99.9366 8.3747C99.7124 8.29949 99.5018 8.2694 99.2475 8.2694C97.8994 8.2694 97.239 9.30325 97.239 11.3121V14.4602H95.2004V9.03385L95.2017 9.03521ZM40.6068 17.5385H42.7193V22.095H42.7493C43.1691 21.5549 44.1576 20.3268 44.5623 19.8468L46.5257 17.5385H49.1481L44.7278 22.4246L49.5679 28H46.7212L44.4133 25.1829C44.0236 24.7179 43.3045 23.7593 42.7493 22.9648H42.7193V28.0014H40.6068V17.5398V17.5385ZM49.6144 25.7518C49.6144 24.1327 51.0377 23.2342 53.5849 23.2342C53.8994 23.2342 54.3191 23.2492 54.6787 23.2793V23.2342C54.6637 22.08 54.11 21.5699 52.8657 21.5699C52.0563 21.5699 51.1867 21.8544 50.5127 22.2591L50.4375 20.7002C51.2168 20.2954 52.2956 20.1012 53.2103 20.1012C55.6085 20.1012 56.5519 21.3306 56.5519 23.2492C56.5519 23.8332 56.5218 24.9573 56.5218 25.5426C56.5218 26.4574 56.582 27.4913 56.6271 28H54.8743C54.8592 27.8797 54.8442 27.6103 54.8442 27.386C54.8442 27.2068 54.8592 26.9511 54.8743 26.7118H54.8442C54.3191 27.5815 53.481 28.1504 52.1917 28.1504C50.6932 28.1504 49.6144 27.2506 49.6144 25.7518ZM54.3943 25.827C54.5885 25.4824 54.7088 25.0174 54.7088 24.4485C54.4244 24.4185 54.274 24.4185 54.0498 24.4185C52.461 24.4185 51.5928 24.748 51.5928 25.6479C51.5928 26.3221 52.0276 26.6968 52.7919 26.6968C53.466 26.6968 54.0512 26.4274 54.3957 25.827H54.3943ZM58.2528 22.679C58.2528 21.9296 58.2377 21.105 58.1776 20.2803H60.0808C60.1109 20.6099 60.141 21.1651 60.141 21.5699H60.171C60.7398 20.64 61.6244 20.1012 62.7333 20.1012C64.7869 20.1012 65.5061 21.4345 65.5061 23.5036V28H63.5277V24.2831C63.5277 22.7993 63.4525 21.7053 62.1344 21.7053C61.4754 21.7053 60.8752 22.1101 60.5607 22.7091C60.3365 23.1439 60.2312 23.7429 60.2312 24.5074V28H58.2528V22.679ZM67.8674 25.1829V21.7655H66.3839V20.2817H67.8975V18.6626L69.7857 18.0185V20.2817H71.6287V21.7655H69.7857V24.7781C69.7857 25.9474 70.0099 26.4711 70.9847 26.4711C71.224 26.4711 71.4947 26.426 71.719 26.3508L71.7641 27.8947C71.3895 28.0301 70.8945 28.0889 70.3859 28.0889C68.618 28.0889 67.8687 27.2191 67.8687 25.1815L67.8674 25.1829ZM72.4081 24.1477C72.4081 21.6602 74.057 20.1012 76.529 20.1012C79.001 20.1012 80.5296 21.7053 80.5296 24.1627C80.5296 26.6202 78.8807 28.1791 76.4688 28.1791C74.057 28.1791 72.4081 26.545 72.4081 24.1477ZM78.4172 24.0875C78.4172 22.4985 77.683 21.585 76.4688 21.585C75.2547 21.585 74.5506 22.5149 74.5506 24.1627C74.5506 25.6766 75.2998 26.6503 76.4538 26.6503C77.6078 26.6503 78.4172 25.6766 78.4172 24.0875ZM81.875 22.679C81.875 21.9296 81.86 21.105 81.7998 20.2803H83.703C83.7331 20.6099 83.7632 21.1651 83.7632 21.5699H83.7933C84.3621 20.64 85.2467 20.1012 86.3555 20.1012C88.4092 20.1012 89.1284 21.4345 89.1284 23.5036V28H87.1499V24.2831C87.1499 22.7993 87.0747 21.7053 85.7567 21.7053C85.0976 21.7053 84.4974 22.1101 84.183 22.7091C83.9587 23.1439 83.8534 23.7429 83.8534 24.5074V28H81.875V22.679ZM90.4067 25.7518C90.4067 24.1327 91.8301 23.2342 94.3773 23.2342C94.6918 23.2342 95.1115 23.2492 95.4711 23.2793V23.2342C95.4561 22.08 94.9023 21.5699 93.6581 21.5699C92.8487 21.5699 91.9791 21.8544 91.305 22.2591L91.2298 20.7002C92.0092 20.2954 93.088 20.1012 94.0027 20.1012C96.4008 20.1012 97.3442 21.3306 97.3442 23.2492C97.3442 23.8332 97.3142 24.9573 97.3142 25.5426C97.3142 26.4574 97.3743 27.4913 97.4195 28H95.6666C95.6516 27.8797 95.6365 27.6103 95.6365 27.386C95.6365 27.2068 95.6516 26.9511 95.6666 26.7118H95.6365C95.1115 27.5815 94.2734 28.1504 92.984 28.1504C91.4855 28.1504 90.4067 27.2506 90.4067 25.7518ZM95.1867 25.827C95.3809 25.4824 95.5012 25.0174 95.5012 24.4485C95.2168 24.4185 95.0664 24.4185 94.8422 24.4185C93.2534 24.4185 92.3852 24.748 92.3852 25.6479C92.3852 26.3221 92.82 26.6968 93.5843 26.6968C94.2583 26.6968 94.8435 26.4274 95.1881 25.827H95.1867ZM99.1039 16.6687H101.112V28H99.1039V16.6687ZM104.969 26.7556H104.939C104.939 27.1904 104.909 27.6991 104.879 28H103.021C103.081 27.3559 103.096 26.5012 103.096 25.6916V16.6687H105.075V19.3368C105.075 20.0862 105.06 20.8957 105.03 21.4797H105.06C105.644 20.5949 106.513 20.1012 107.652 20.1012C109.63 20.1012 110.858 21.7504 110.858 24.0725C110.858 26.3945 109.584 28.1791 107.502 28.1791C106.333 28.1791 105.478 27.639 104.969 26.7556ZM108.821 24.1327C108.821 22.6639 108.192 21.6602 107.008 21.6602C105.824 21.6602 105.09 22.7241 105.09 24.1477C105.09 25.5713 105.839 26.6202 106.993 26.6202C108.147 26.6202 108.821 25.5863 108.821 24.1327ZM111.675 25.7518C111.675 24.1327 113.098 23.2342 115.645 23.2342C115.96 23.2342 116.379 23.2492 116.739 23.2793V23.2342C116.724 22.08 116.17 21.5699 114.926 21.5699C114.116 21.5699 113.247 21.8544 112.573 22.2591L112.498 20.7002C113.277 20.2954 114.356 20.1012 115.27 20.1012C117.669 20.1012 118.612 21.3306 118.612 23.2492C118.612 23.8332 118.582 24.9573 118.582 25.5426C118.582 26.4574 118.642 27.4913 118.687 28H116.934C116.919 27.8797 116.904 27.6103 116.904 27.386C116.904 27.2068 116.919 26.9511 116.934 26.7118H116.904C116.379 27.5815 115.541 28.1504 114.252 28.1504C112.753 28.1504 111.675 27.2506 111.675 25.7518ZM116.455 25.827C116.649 25.4824 116.769 25.0174 116.769 24.4485C116.485 24.4185 116.334 24.4185 116.11 24.4185C114.521 24.4185 113.653 24.748 113.653 25.6479C113.653 26.3221 114.088 26.6968 114.852 26.6968C115.526 26.6968 116.111 26.4274 116.456 25.827H116.455ZM120.312 22.679C120.312 21.9296 120.297 21.105 120.236 20.2803H122.14C122.17 20.6099 122.2 21.1651 122.2 21.5699H122.23C122.799 20.64 123.683 20.1012 124.792 20.1012C126.844 20.1012 127.565 21.4345 127.565 23.5036V28H125.586V24.2831C125.586 22.7993 125.511 21.7053 124.193 21.7053C123.534 21.7053 122.934 22.1101 122.62 22.7091C122.395 23.1439 122.29 23.7429 122.29 24.5074V28H120.312V22.679ZM129.338 16.6687H131.377V23.5487H131.407C131.721 23.0988 132.337 22.3344 132.755 21.8256L134.074 20.2817H136.382L133.265 23.7142L136.727 28.0014H134.225L132.726 25.9774C132.322 25.4222 131.753 24.599 131.407 24.0738H131.377V28.0014H129.338V16.6701V16.6687Z" fill="#0A94F2"/>
<path d="M0 0V32H31.994V0H0ZM30.7635 30.7692H1.23054V1.23077H30.7635V30.7692Z" fill="#0A94F2"/>
<path d="M16.4262 4H28.3023L20.919 16L28.3023 28H16.4262L9.04297 16L16.4262 4Z" fill="#0A94F2"/>
</g>
</g>
<defs>
<clipPath id="clip0_248_19244">
<rect width="137" height="32" fill="white"/>
</clipPath>
<clipPath id="clip1_248_19244">
<rect width="136.727" height="32" fill="white"/>
</clipPath>
</defs>
</svg>
