<svg width="205" height="34" viewBox="0 0 205 34" fill="none" xmlns="http://www.w3.org/2000/svg">
<g clip-path="url(#clip0_135_455)">
<path d="M17.3685 27.1697C18.8276 27.1697 20.2291 26.9228 21.5334 26.4683L20.729 27.8616C19.6535 28.1316 18.5277 28.2749 17.3685 28.2749C17.2113 28.2749 17.0548 28.2723 16.8989 28.267L16.2365 27.1198C16.6094 27.1528 16.987 27.1697 17.3685 27.1697Z" fill="black"/>
<path d="M22.4563 27.3036L23.4224 25.6304C27.355 23.4839 30.0229 19.3112 30.0229 14.5153C30.0229 13.1633 29.8109 11.8609 29.4183 10.6394L30.141 9.38773C30.7777 10.9724 31.1281 12.7029 31.1281 14.5153C31.1281 20.3173 27.5371 25.2805 22.4563 27.3036Z" fill="black"/>
<path d="M14.697 26.8872C8.99111 25.661 4.71408 20.5876 4.71408 14.5153C4.71408 14.4156 4.71523 14.3162 4.71752 14.2171L3.74953 12.5405C3.65685 13.1854 3.60889 13.8448 3.60889 14.5153C3.60889 21.4528 8.74307 27.1911 15.4191 28.1379L14.697 26.8872Z" fill="black"/>
<path d="M4.12731 10.761L4.9334 12.1571C5.31831 10.1149 6.19389 8.24592 7.43297 6.67737H6.05797C5.20388 7.90756 4.54533 9.28375 4.12731 10.761Z" fill="black"/>
<path d="M24.9269 4.36516C26.6036 5.6158 27.96 7.27213 28.8506 9.18875L29.5131 8.04138C28.7741 6.65798 27.8056 5.41563 26.6585 4.36516H24.9269Z" fill="black"/>
<path d="M8.52859 5.46042C10.8095 3.23328 13.9288 1.86086 17.3685 1.86086C19.3662 1.86086 21.2559 2.32378 22.9359 3.14821H25.1243C22.9161 1.63858 20.2454 0.755669 17.3685 0.755669C13.2366 0.755669 9.5301 2.57691 7.00792 5.46042H8.52859Z" fill="black"/>
<path d="M9.37835 18.7691L17.391 32.6254L25.376 18.7691M9.37835 18.7691L1.36572 4.91273H17.3633M9.37835 18.7691L17.3633 4.91273M9.37835 18.7691H25.376M17.3633 4.91273H33.361L25.376 18.7691M17.3633 4.91273L25.376 18.7691" stroke="black" stroke-width="1.10519"/>
<path d="M17.3135 4.90014L9.38379 9.81481V18.7977M17.3135 4.90014L25.409 9.81481V18.7977M17.3135 4.90014V14.5111M25.409 18.7977L17.3135 23.4121L9.38379 18.7977M25.409 18.7977L17.3135 14.5111M9.38379 18.7977L17.3135 14.5111" stroke="black" stroke-width="0.369953"/>
<path d="M45.0087 25.2344V8.65071H51.2276C52.5016 8.65071 53.5705 8.88824 54.4342 9.36329C55.3034 9.83835 55.9592 10.4915 56.4019 11.3229C56.85 12.1488 57.074 13.0881 57.074 14.1408C57.074 15.2043 56.85 16.149 56.4019 16.9749C55.9538 17.8009 55.2926 18.4514 54.418 18.9264C53.5435 19.3961 52.4665 19.6309 51.1871 19.6309H47.0655V17.1612H50.7823C51.5272 17.1612 52.1372 17.0316 52.6123 16.7725C53.0873 16.5134 53.4382 16.1571 53.665 15.7036C53.8971 15.2502 54.0132 14.7292 54.0132 14.1408C54.0132 13.5524 53.8971 13.0342 53.665 12.5861C53.4382 12.138 53.0846 11.7898 52.6042 11.5415C52.1291 11.2878 51.5164 11.1609 50.7661 11.1609H48.0129V25.2344H45.0087ZM62.9103 25.4854C62.1221 25.4854 61.4122 25.345 60.7806 25.0643C60.1544 24.7782 59.6578 24.3571 59.2907 23.8011C58.929 23.2451 58.7482 22.5595 58.7482 21.7444C58.7482 21.0426 58.8777 20.4623 59.1368 20.0034C59.396 19.5445 59.7495 19.1775 60.1976 18.9021C60.6457 18.6268 61.1504 18.419 61.7118 18.2786C62.2787 18.1329 62.8644 18.0276 63.469 17.9628C64.1978 17.8873 64.7889 17.8198 65.2423 17.7604C65.6958 17.6956 66.0251 17.5984 66.2302 17.4689C66.4408 17.3339 66.546 17.1261 66.546 16.8454V16.7968C66.546 16.1868 66.3652 15.7144 66.0035 15.3797C65.6418 15.045 65.1209 14.8777 64.4407 14.8777C63.7227 14.8777 63.1532 15.0342 62.7321 15.3473C62.3165 15.6604 62.0357 16.0302 61.89 16.4567L59.153 16.068C59.369 15.3122 59.7253 14.6806 60.2219 14.1732C60.7185 13.6604 61.3259 13.2771 62.0438 13.0234C62.7618 12.7642 63.5554 12.6347 64.4245 12.6347C65.0237 12.6347 65.6202 12.7049 66.214 12.8452C66.8079 12.9856 67.3504 13.2177 67.8416 13.5416C68.3329 13.8601 68.727 14.2947 69.0239 14.8453C69.3262 15.3959 69.4773 16.0842 69.4773 16.9102V25.2344H66.6594V23.5258H66.5622C66.3841 23.8713 66.1331 24.1952 65.8092 24.4975C65.4907 24.7944 65.0885 25.0346 64.6026 25.2182C64.1222 25.3963 63.5581 25.4854 62.9103 25.4854ZM63.6714 23.3315C64.2598 23.3315 64.77 23.2154 65.2019 22.9833C65.6337 22.7457 65.9657 22.4326 66.1978 22.044C66.4354 21.6553 66.5541 21.2315 66.5541 20.7727V19.307C66.4624 19.3826 66.3058 19.4528 66.0845 19.5175C65.8686 19.5823 65.6256 19.639 65.3557 19.6876C65.0858 19.7362 64.8186 19.7794 64.5541 19.8172C64.2895 19.8549 64.0601 19.8873 63.8658 19.9143C63.4285 19.9737 63.0371 20.0709 62.6916 20.2058C62.3461 20.3408 62.0735 20.5297 61.8738 20.7727C61.6741 21.0102 61.5742 21.3179 61.5742 21.6958C61.5742 22.2356 61.7712 22.6432 62.1653 22.9185C62.5594 23.1938 63.0614 23.3315 63.6714 23.3315ZM75.3561 17.9466V25.2344H72.4248V12.7966H75.2266V14.9101H75.3723C75.6584 14.2137 76.1146 13.6604 76.7408 13.2501C77.3724 12.8398 78.1524 12.6347 79.081 12.6347C79.9393 12.6347 80.687 12.8182 81.324 13.1853C81.9664 13.5524 82.463 14.0841 82.8139 14.7805C83.1702 15.4769 83.3456 16.3217 83.3402 17.315V25.2344H80.4089V17.7685C80.4089 16.9371 80.193 16.2866 79.7611 15.817C79.3347 15.3473 78.7436 15.1125 77.9878 15.1125C77.475 15.1125 77.0188 15.2259 76.6193 15.4526C76.2252 15.6739 75.9148 15.9951 75.6881 16.4162C75.4668 16.8373 75.3561 17.3474 75.3561 17.9466ZM90.9357 25.453C89.9586 25.453 89.0841 25.202 88.3121 24.6999C87.5401 24.1979 86.9301 23.4691 86.4821 22.5136C86.034 21.5581 85.81 20.3975 85.81 19.0317C85.81 17.6497 86.0367 16.4837 86.4902 15.5336C86.949 14.5781 87.5671 13.8574 88.3445 13.3716C89.1218 12.8803 89.9883 12.6347 90.9438 12.6347C91.6726 12.6347 92.2718 12.7588 92.7414 13.0072C93.2111 13.2501 93.5836 13.5443 93.8589 13.8898C94.1342 14.2299 94.3474 14.5511 94.4986 14.8534H94.62V8.65071H97.5594V25.2344H94.6767V23.2748H94.4986C94.3474 23.5771 94.1288 23.8983 93.8427 24.2384C93.5566 24.5731 93.1787 24.8592 92.709 25.0967C92.2394 25.3342 91.6483 25.453 90.9357 25.453ZM91.7535 23.0481C92.3743 23.0481 92.9034 22.8807 93.3406 22.546C93.7779 22.2059 94.1099 21.7336 94.3366 21.1289C94.5634 20.5243 94.6767 19.8199 94.6767 19.0155C94.6767 18.2112 94.5634 17.5121 94.3366 16.9183C94.1153 16.3244 93.786 15.8629 93.3487 15.5336C92.9169 15.2043 92.3851 15.0396 91.7535 15.0396C91.1003 15.0396 90.5551 15.2097 90.1178 15.5498C89.6806 15.8899 89.3513 16.3595 89.1299 16.9587C88.9086 17.558 88.7979 18.2435 88.7979 19.0155C88.7979 19.7929 88.9086 20.4865 89.1299 21.0966C89.3567 21.7012 89.6887 22.1789 90.1259 22.5298C90.5686 22.8753 91.1111 23.0481 91.7535 23.0481ZM106.108 25.4773C104.894 25.4773 103.841 25.2101 102.95 24.6756C102.06 24.1412 101.369 23.3935 100.877 22.4326C100.392 21.4717 100.149 20.3489 100.149 19.0641C100.149 17.7793 100.392 16.6537 100.877 15.6874C101.369 14.7211 102.06 13.9708 102.95 13.4363C103.841 12.9019 104.894 12.6347 106.108 12.6347C107.323 12.6347 108.376 12.9019 109.266 13.4363C110.157 13.9708 110.845 14.7211 111.331 15.6874C111.822 16.6537 112.068 17.7793 112.068 19.0641C112.068 20.3489 111.822 21.4717 111.331 22.4326C110.845 23.3935 110.157 24.1412 109.266 24.6756C108.376 25.2101 107.323 25.4773 106.108 25.4773ZM106.125 23.129C106.783 23.129 107.334 22.9482 107.776 22.5865C108.219 22.2194 108.548 21.7282 108.764 21.1128C108.986 20.4973 109.096 19.8118 109.096 19.056C109.096 18.2948 108.986 17.6065 108.764 16.9911C108.548 16.3703 108.219 15.8764 107.776 15.5093C107.334 15.1422 106.783 14.9587 106.125 14.9587C105.45 14.9587 104.888 15.1422 104.44 15.5093C103.998 15.8764 103.666 16.3703 103.444 16.9911C103.228 17.6065 103.12 18.2948 103.12 19.056C103.12 19.8118 103.228 20.4973 103.444 21.1128C103.666 21.7282 103.998 22.2194 104.44 22.5865C104.888 22.9482 105.45 23.129 106.125 23.129ZM114.556 25.2344V12.7966H117.398V14.8696H117.528C117.755 14.1516 118.143 13.5983 118.694 13.2096C119.25 12.8155 119.884 12.6185 120.597 12.6185C120.759 12.6185 120.94 12.6266 121.139 12.6428C121.344 12.6536 121.515 12.6725 121.649 12.6995V15.3959C121.525 15.3527 121.328 15.3149 121.058 15.2826C120.794 15.2448 120.537 15.2259 120.289 15.2259C119.755 15.2259 119.274 15.3419 118.848 15.5741C118.427 15.8008 118.095 16.1166 117.852 16.5215C117.609 16.9263 117.487 17.3933 117.487 17.9223V25.2344H114.556ZM126.953 25.4854C126.165 25.4854 125.455 25.345 124.824 25.0643C124.197 24.7782 123.701 24.3571 123.334 23.8011C122.972 23.2451 122.791 22.5595 122.791 21.7444C122.791 21.0426 122.921 20.4623 123.18 20.0034C123.439 19.5445 123.793 19.1775 124.241 18.9021C124.689 18.6268 125.193 18.419 125.755 18.2786C126.322 18.1329 126.907 18.0276 127.512 17.9628C128.241 17.8873 128.832 17.8198 129.285 17.7604C129.739 17.6956 130.068 17.5984 130.273 17.4689C130.484 17.3339 130.589 17.1261 130.589 16.8454V16.7968C130.589 16.1868 130.408 15.7144 130.047 15.3797C129.685 15.045 129.164 14.8777 128.484 14.8777C127.766 14.8777 127.196 15.0342 126.775 15.3473C126.36 15.6604 126.079 16.0302 125.933 16.4567L123.196 16.068C123.412 15.3122 123.768 14.6806 124.265 14.1732C124.762 13.6604 125.369 13.2771 126.087 13.0234C126.805 12.7642 127.598 12.6347 128.468 12.6347C129.067 12.6347 129.663 12.7049 130.257 12.8452C130.851 12.9856 131.393 13.2177 131.885 13.5416C132.376 13.8601 132.77 14.2947 133.067 14.8453C133.369 15.3959 133.52 16.0842 133.52 16.9102V25.2344H130.702V23.5258H130.605C130.427 23.8713 130.176 24.1952 129.852 24.4975C129.534 24.7944 129.132 25.0346 128.646 25.2182C128.165 25.3963 127.601 25.4854 126.953 25.4854ZM127.714 23.3315C128.303 23.3315 128.813 23.2154 129.245 22.9833C129.677 22.7457 130.009 22.4326 130.241 22.044C130.478 21.6553 130.597 21.2315 130.597 20.7727V19.307C130.505 19.3826 130.349 19.4528 130.128 19.5175C129.912 19.5823 129.669 19.639 129.399 19.6876C129.129 19.7362 128.862 19.7794 128.597 19.8172C128.333 19.8549 128.103 19.8873 127.909 19.9143C127.472 19.9737 127.08 20.0709 126.735 20.2058C126.389 20.3408 126.117 20.5297 125.917 20.7727C125.717 21.0102 125.617 21.3179 125.617 21.6958C125.617 22.2356 125.814 22.6432 126.208 22.9185C126.602 23.1938 127.104 23.3315 127.714 23.3315ZM142.254 25.2344V8.65071H148.472C149.746 8.65071 150.815 8.88824 151.679 9.36329C152.548 9.83835 153.204 10.4915 153.647 11.3229C154.095 12.1488 154.319 13.0881 154.319 14.1408C154.319 15.2043 154.095 16.149 153.647 16.9749C153.199 17.8009 152.537 18.4514 151.663 18.9264C150.788 19.3961 149.711 19.6309 148.432 19.6309H144.31V17.1612H148.027C148.772 17.1612 149.382 17.0316 149.857 16.7725C150.332 16.5134 150.683 16.1571 150.91 15.7036C151.142 15.2502 151.258 14.7292 151.258 14.1408C151.258 13.5524 151.142 13.0342 150.91 12.5861C150.683 12.138 150.329 11.7898 149.849 11.5415C149.374 11.2878 148.761 11.1609 148.011 11.1609H145.258V25.2344H142.254ZM156.799 25.2344V12.7966H159.641V14.8696H159.77C159.997 14.1516 160.386 13.5983 160.936 13.2096C161.492 12.8155 162.127 12.6185 162.839 12.6185C163.001 12.6185 163.182 12.6266 163.382 12.6428C163.587 12.6536 163.757 12.6725 163.892 12.6995V15.3959C163.768 15.3527 163.571 15.3149 163.301 15.2826C163.036 15.2448 162.78 15.2259 162.532 15.2259C161.997 15.2259 161.517 15.3419 161.09 15.5741C160.669 15.8008 160.337 16.1166 160.094 16.5215C159.851 16.9263 159.73 17.3933 159.73 17.9223V25.2344H156.799ZM165.839 25.2344V12.7966H168.771V25.2344H165.839ZM167.313 11.0314C166.849 11.0314 166.45 10.8775 166.115 10.5698C165.78 10.2567 165.613 9.88153 165.613 9.44427C165.613 9.0016 165.78 8.62642 166.115 8.31872C166.45 8.00561 166.849 7.84906 167.313 7.84906C167.783 7.84906 168.182 8.00561 168.512 8.31872C168.846 8.62642 169.014 9.0016 169.014 9.44427C169.014 9.88153 168.846 10.2567 168.512 10.5698C168.182 10.8775 167.783 11.0314 167.313 11.0314ZM171.785 25.2344V12.7966H174.587V14.9101H174.733C174.992 14.1975 175.421 13.6415 176.02 13.242C176.619 12.8371 177.335 12.6347 178.166 12.6347C179.008 12.6347 179.718 12.8398 180.296 13.2501C180.879 13.655 181.289 14.2083 181.526 14.9101H181.656C181.931 14.2191 182.395 13.6685 183.049 13.2582C183.707 12.8425 184.487 12.6347 185.389 12.6347C186.533 12.6347 187.467 12.9964 188.191 13.7197C188.914 14.4431 189.276 15.4985 189.276 16.8859V25.2344H186.336V17.3393C186.336 16.5674 186.131 16.0032 185.721 15.6469C185.311 15.2853 184.809 15.1044 184.215 15.1044C183.508 15.1044 182.954 15.3257 182.555 15.7684C182.161 16.2057 181.964 16.7752 181.964 17.477V25.2344H179.089V17.2179C179.089 16.5755 178.895 16.0626 178.506 15.6793C178.123 15.2961 177.621 15.1044 177 15.1044C176.579 15.1044 176.196 15.2124 175.85 15.4283C175.505 15.6388 175.229 15.9385 175.024 16.3271C174.819 16.7104 174.716 17.1585 174.716 17.6713V25.2344H171.785ZM197.756 25.4773C196.509 25.4773 195.432 25.2182 194.525 24.6999C193.623 24.1763 192.93 23.4367 192.444 22.4812C191.958 21.5203 191.715 20.3894 191.715 19.0884C191.715 17.809 191.958 16.6861 192.444 15.7198C192.935 14.7481 193.621 13.9924 194.501 13.4525C195.38 12.9073 196.414 12.6347 197.602 12.6347C198.368 12.6347 199.092 12.7588 199.772 13.0072C200.458 13.2501 201.062 13.628 201.586 14.1408C202.115 14.6537 202.531 15.3069 202.833 16.1004C203.135 16.8886 203.286 17.8279 203.286 18.9183V19.8172H193.092V17.8414H200.477C200.471 17.2799 200.35 16.7806 200.112 16.3433C199.875 15.9007 199.543 15.5525 199.116 15.2988C198.695 15.045 198.204 14.9182 197.642 14.9182C197.043 14.9182 196.517 15.0639 196.063 15.3554C195.61 15.6415 195.256 16.0194 195.003 16.4891C194.754 16.9533 194.627 17.4635 194.622 18.0195V19.7443C194.622 20.4677 194.754 21.0885 195.019 21.6067C195.283 22.1195 195.653 22.5136 196.128 22.7889C196.603 23.0588 197.159 23.1938 197.796 23.1938C198.223 23.1938 198.609 23.1344 198.954 23.0157C199.3 22.8915 199.599 22.7107 199.853 22.4731C200.107 22.2356 200.298 21.9414 200.428 21.5905L203.165 21.8982C202.992 22.6216 202.663 23.2532 202.177 23.793C201.697 24.3275 201.081 24.7431 200.331 25.04C199.58 25.3315 198.722 25.4773 197.756 25.4773Z" fill="url(#paint0_linear_135_455)"/>
<path d="M45.0087 25.2344V8.65071H51.2276C52.5016 8.65071 53.5705 8.88824 54.4342 9.36329C55.3034 9.83835 55.9592 10.4915 56.4019 11.3229C56.85 12.1488 57.074 13.0881 57.074 14.1408C57.074 15.2043 56.85 16.149 56.4019 16.9749C55.9538 17.8009 55.2926 18.4514 54.418 18.9264C53.5435 19.3961 52.4665 19.6309 51.1871 19.6309H47.0655V17.1612H50.7823C51.5272 17.1612 52.1372 17.0316 52.6123 16.7725C53.0873 16.5134 53.4382 16.1571 53.665 15.7036C53.8971 15.2502 54.0132 14.7292 54.0132 14.1408C54.0132 13.5524 53.8971 13.0342 53.665 12.5861C53.4382 12.138 53.0846 11.7898 52.6042 11.5415C52.1291 11.2878 51.5164 11.1609 50.7661 11.1609H48.0129V25.2344H45.0087ZM62.9103 25.4854C62.1221 25.4854 61.4122 25.345 60.7806 25.0643C60.1544 24.7782 59.6578 24.3571 59.2907 23.8011C58.929 23.2451 58.7482 22.5595 58.7482 21.7444C58.7482 21.0426 58.8777 20.4623 59.1368 20.0034C59.396 19.5445 59.7495 19.1775 60.1976 18.9021C60.6457 18.6268 61.1504 18.419 61.7118 18.2786C62.2787 18.1329 62.8644 18.0276 63.469 17.9628C64.1978 17.8873 64.7889 17.8198 65.2423 17.7604C65.6958 17.6956 66.0251 17.5984 66.2302 17.4689C66.4408 17.3339 66.546 17.1261 66.546 16.8454V16.7968C66.546 16.1868 66.3652 15.7144 66.0035 15.3797C65.6418 15.045 65.1209 14.8777 64.4407 14.8777C63.7227 14.8777 63.1532 15.0342 62.7321 15.3473C62.3165 15.6604 62.0357 16.0302 61.89 16.4567L59.153 16.068C59.369 15.3122 59.7253 14.6806 60.2219 14.1732C60.7185 13.6604 61.3259 13.2771 62.0438 13.0234C62.7618 12.7642 63.5554 12.6347 64.4245 12.6347C65.0237 12.6347 65.6202 12.7049 66.214 12.8452C66.8079 12.9856 67.3504 13.2177 67.8416 13.5416C68.3329 13.8601 68.727 14.2947 69.0239 14.8453C69.3262 15.3959 69.4773 16.0842 69.4773 16.9102V25.2344H66.6594V23.5258H66.5622C66.3841 23.8713 66.1331 24.1952 65.8092 24.4975C65.4907 24.7944 65.0885 25.0346 64.6026 25.2182C64.1222 25.3963 63.5581 25.4854 62.9103 25.4854ZM63.6714 23.3315C64.2598 23.3315 64.77 23.2154 65.2019 22.9833C65.6337 22.7457 65.9657 22.4326 66.1978 22.044C66.4354 21.6553 66.5541 21.2315 66.5541 20.7727V19.307C66.4624 19.3826 66.3058 19.4528 66.0845 19.5175C65.8686 19.5823 65.6256 19.639 65.3557 19.6876C65.0858 19.7362 64.8186 19.7794 64.5541 19.8172C64.2895 19.8549 64.0601 19.8873 63.8658 19.9143C63.4285 19.9737 63.0371 20.0709 62.6916 20.2058C62.3461 20.3408 62.0735 20.5297 61.8738 20.7727C61.6741 21.0102 61.5742 21.3179 61.5742 21.6958C61.5742 22.2356 61.7712 22.6432 62.1653 22.9185C62.5594 23.1938 63.0614 23.3315 63.6714 23.3315ZM75.3561 17.9466V25.2344H72.4248V12.7966H75.2266V14.9101H75.3723C75.6584 14.2137 76.1146 13.6604 76.7408 13.2501C77.3724 12.8398 78.1524 12.6347 79.081 12.6347C79.9393 12.6347 80.687 12.8182 81.324 13.1853C81.9664 13.5524 82.463 14.0841 82.8139 14.7805C83.1702 15.4769 83.3456 16.3217 83.3402 17.315V25.2344H80.4089V17.7685C80.4089 16.9371 80.193 16.2866 79.7611 15.817C79.3347 15.3473 78.7436 15.1125 77.9878 15.1125C77.475 15.1125 77.0188 15.2259 76.6193 15.4526C76.2252 15.6739 75.9148 15.9951 75.6881 16.4162C75.4668 16.8373 75.3561 17.3474 75.3561 17.9466ZM90.9357 25.453C89.9586 25.453 89.0841 25.202 88.3121 24.6999C87.5401 24.1979 86.9301 23.4691 86.4821 22.5136C86.034 21.5581 85.81 20.3975 85.81 19.0317C85.81 17.6497 86.0367 16.4837 86.4902 15.5336C86.949 14.5781 87.5671 13.8574 88.3445 13.3716C89.1218 12.8803 89.9883 12.6347 90.9438 12.6347C91.6726 12.6347 92.2718 12.7588 92.7414 13.0072C93.2111 13.2501 93.5836 13.5443 93.8589 13.8898C94.1342 14.2299 94.3474 14.5511 94.4986 14.8534H94.62V8.65071H97.5594V25.2344H94.6767V23.2748H94.4986C94.3474 23.5771 94.1288 23.8983 93.8427 24.2384C93.5566 24.5731 93.1787 24.8592 92.709 25.0967C92.2394 25.3342 91.6483 25.453 90.9357 25.453ZM91.7535 23.0481C92.3743 23.0481 92.9034 22.8807 93.3406 22.546C93.7779 22.2059 94.1099 21.7336 94.3366 21.1289C94.5634 20.5243 94.6767 19.8199 94.6767 19.0155C94.6767 18.2112 94.5634 17.5121 94.3366 16.9183C94.1153 16.3244 93.786 15.8629 93.3487 15.5336C92.9169 15.2043 92.3851 15.0396 91.7535 15.0396C91.1003 15.0396 90.5551 15.2097 90.1178 15.5498C89.6806 15.8899 89.3513 16.3595 89.1299 16.9587C88.9086 17.558 88.7979 18.2435 88.7979 19.0155C88.7979 19.7929 88.9086 20.4865 89.1299 21.0966C89.3567 21.7012 89.6887 22.1789 90.1259 22.5298C90.5686 22.8753 91.1111 23.0481 91.7535 23.0481ZM106.108 25.4773C104.894 25.4773 103.841 25.2101 102.95 24.6756C102.06 24.1412 101.369 23.3935 100.877 22.4326C100.392 21.4717 100.149 20.3489 100.149 19.0641C100.149 17.7793 100.392 16.6537 100.877 15.6874C101.369 14.7211 102.06 13.9708 102.95 13.4363C103.841 12.9019 104.894 12.6347 106.108 12.6347C107.323 12.6347 108.376 12.9019 109.266 13.4363C110.157 13.9708 110.845 14.7211 111.331 15.6874C111.822 16.6537 112.068 17.7793 112.068 19.0641C112.068 20.3489 111.822 21.4717 111.331 22.4326C110.845 23.3935 110.157 24.1412 109.266 24.6756C108.376 25.2101 107.323 25.4773 106.108 25.4773ZM106.125 23.129C106.783 23.129 107.334 22.9482 107.776 22.5865C108.219 22.2194 108.548 21.7282 108.764 21.1128C108.986 20.4973 109.096 19.8118 109.096 19.056C109.096 18.2948 108.986 17.6065 108.764 16.9911C108.548 16.3703 108.219 15.8764 107.776 15.5093C107.334 15.1422 106.783 14.9587 106.125 14.9587C105.45 14.9587 104.888 15.1422 104.44 15.5093C103.998 15.8764 103.666 16.3703 103.444 16.9911C103.228 17.6065 103.12 18.2948 103.12 19.056C103.12 19.8118 103.228 20.4973 103.444 21.1128C103.666 21.7282 103.998 22.2194 104.44 22.5865C104.888 22.9482 105.45 23.129 106.125 23.129ZM114.556 25.2344V12.7966H117.398V14.8696H117.528C117.755 14.1516 118.143 13.5983 118.694 13.2096C119.25 12.8155 119.884 12.6185 120.597 12.6185C120.759 12.6185 120.94 12.6266 121.139 12.6428C121.344 12.6536 121.515 12.6725 121.649 12.6995V15.3959C121.525 15.3527 121.328 15.3149 121.058 15.2826C120.794 15.2448 120.537 15.2259 120.289 15.2259C119.755 15.2259 119.274 15.3419 118.848 15.5741C118.427 15.8008 118.095 16.1166 117.852 16.5215C117.609 16.9263 117.487 17.3933 117.487 17.9223V25.2344H114.556ZM126.953 25.4854C126.165 25.4854 125.455 25.345 124.824 25.0643C124.197 24.7782 123.701 24.3571 123.334 23.8011C122.972 23.2451 122.791 22.5595 122.791 21.7444C122.791 21.0426 122.921 20.4623 123.18 20.0034C123.439 19.5445 123.793 19.1775 124.241 18.9021C124.689 18.6268 125.193 18.419 125.755 18.2786C126.322 18.1329 126.907 18.0276 127.512 17.9628C128.241 17.8873 128.832 17.8198 129.285 17.7604C129.739 17.6956 130.068 17.5984 130.273 17.4689C130.484 17.3339 130.589 17.1261 130.589 16.8454V16.7968C130.589 16.1868 130.408 15.7144 130.047 15.3797C129.685 15.045 129.164 14.8777 128.484 14.8777C127.766 14.8777 127.196 15.0342 126.775 15.3473C126.36 15.6604 126.079 16.0302 125.933 16.4567L123.196 16.068C123.412 15.3122 123.768 14.6806 124.265 14.1732C124.762 13.6604 125.369 13.2771 126.087 13.0234C126.805 12.7642 127.598 12.6347 128.468 12.6347C129.067 12.6347 129.663 12.7049 130.257 12.8452C130.851 12.9856 131.393 13.2177 131.885 13.5416C132.376 13.8601 132.77 14.2947 133.067 14.8453C133.369 15.3959 133.52 16.0842 133.52 16.9102V25.2344H130.702V23.5258H130.605C130.427 23.8713 130.176 24.1952 129.852 24.4975C129.534 24.7944 129.132 25.0346 128.646 25.2182C128.165 25.3963 127.601 25.4854 126.953 25.4854ZM127.714 23.3315C128.303 23.3315 128.813 23.2154 129.245 22.9833C129.677 22.7457 130.009 22.4326 130.241 22.044C130.478 21.6553 130.597 21.2315 130.597 20.7727V19.307C130.505 19.3826 130.349 19.4528 130.128 19.5175C129.912 19.5823 129.669 19.639 129.399 19.6876C129.129 19.7362 128.862 19.7794 128.597 19.8172C128.333 19.8549 128.103 19.8873 127.909 19.9143C127.472 19.9737 127.08 20.0709 126.735 20.2058C126.389 20.3408 126.117 20.5297 125.917 20.7727C125.717 21.0102 125.617 21.3179 125.617 21.6958C125.617 22.2356 125.814 22.6432 126.208 22.9185C126.602 23.1938 127.104 23.3315 127.714 23.3315ZM142.254 25.2344V8.65071H148.472C149.746 8.65071 150.815 8.88824 151.679 9.36329C152.548 9.83835 153.204 10.4915 153.647 11.3229C154.095 12.1488 154.319 13.0881 154.319 14.1408C154.319 15.2043 154.095 16.149 153.647 16.9749C153.199 17.8009 152.537 18.4514 151.663 18.9264C150.788 19.3961 149.711 19.6309 148.432 19.6309H144.31V17.1612H148.027C148.772 17.1612 149.382 17.0316 149.857 16.7725C150.332 16.5134 150.683 16.1571 150.91 15.7036C151.142 15.2502 151.258 14.7292 151.258 14.1408C151.258 13.5524 151.142 13.0342 150.91 12.5861C150.683 12.138 150.329 11.7898 149.849 11.5415C149.374 11.2878 148.761 11.1609 148.011 11.1609H145.258V25.2344H142.254ZM156.799 25.2344V12.7966H159.641V14.8696H159.77C159.997 14.1516 160.386 13.5983 160.936 13.2096C161.492 12.8155 162.127 12.6185 162.839 12.6185C163.001 12.6185 163.182 12.6266 163.382 12.6428C163.587 12.6536 163.757 12.6725 163.892 12.6995V15.3959C163.768 15.3527 163.571 15.3149 163.301 15.2826C163.036 15.2448 162.78 15.2259 162.532 15.2259C161.997 15.2259 161.517 15.3419 161.09 15.5741C160.669 15.8008 160.337 16.1166 160.094 16.5215C159.851 16.9263 159.73 17.3933 159.73 17.9223V25.2344H156.799ZM165.839 25.2344V12.7966H168.771V25.2344H165.839ZM167.313 11.0314C166.849 11.0314 166.45 10.8775 166.115 10.5698C165.78 10.2567 165.613 9.88153 165.613 9.44427C165.613 9.0016 165.78 8.62642 166.115 8.31872C166.45 8.00561 166.849 7.84906 167.313 7.84906C167.783 7.84906 168.182 8.00561 168.512 8.31872C168.846 8.62642 169.014 9.0016 169.014 9.44427C169.014 9.88153 168.846 10.2567 168.512 10.5698C168.182 10.8775 167.783 11.0314 167.313 11.0314ZM171.785 25.2344V12.7966H174.587V14.9101H174.733C174.992 14.1975 175.421 13.6415 176.02 13.242C176.619 12.8371 177.335 12.6347 178.166 12.6347C179.008 12.6347 179.718 12.8398 180.296 13.2501C180.879 13.655 181.289 14.2083 181.526 14.9101H181.656C181.931 14.2191 182.395 13.6685 183.049 13.2582C183.707 12.8425 184.487 12.6347 185.389 12.6347C186.533 12.6347 187.467 12.9964 188.191 13.7197C188.914 14.4431 189.276 15.4985 189.276 16.8859V25.2344H186.336V17.3393C186.336 16.5674 186.131 16.0032 185.721 15.6469C185.311 15.2853 184.809 15.1044 184.215 15.1044C183.508 15.1044 182.954 15.3257 182.555 15.7684C182.161 16.2057 181.964 16.7752 181.964 17.477V25.2344H179.089V17.2179C179.089 16.5755 178.895 16.0626 178.506 15.6793C178.123 15.2961 177.621 15.1044 177 15.1044C176.579 15.1044 176.196 15.2124 175.85 15.4283C175.505 15.6388 175.229 15.9385 175.024 16.3271C174.819 16.7104 174.716 17.1585 174.716 17.6713V25.2344H171.785ZM197.756 25.4773C196.509 25.4773 195.432 25.2182 194.525 24.6999C193.623 24.1763 192.93 23.4367 192.444 22.4812C191.958 21.5203 191.715 20.3894 191.715 19.0884C191.715 17.809 191.958 16.6861 192.444 15.7198C192.935 14.7481 193.621 13.9924 194.501 13.4525C195.38 12.9073 196.414 12.6347 197.602 12.6347C198.368 12.6347 199.092 12.7588 199.772 13.0072C200.458 13.2501 201.062 13.628 201.586 14.1408C202.115 14.6537 202.531 15.3069 202.833 16.1004C203.135 16.8886 203.286 17.8279 203.286 18.9183V19.8172H193.092V17.8414H200.477C200.471 17.2799 200.35 16.7806 200.112 16.3433C199.875 15.9007 199.543 15.5525 199.116 15.2988C198.695 15.045 198.204 14.9182 197.642 14.9182C197.043 14.9182 196.517 15.0639 196.063 15.3554C195.61 15.6415 195.256 16.0194 195.003 16.4891C194.754 16.9533 194.627 17.4635 194.622 18.0195V19.7443C194.622 20.4677 194.754 21.0885 195.019 21.6067C195.283 22.1195 195.653 22.5136 196.128 22.7889C196.603 23.0588 197.159 23.1938 197.796 23.1938C198.223 23.1938 198.609 23.1344 198.954 23.0157C199.3 22.8915 199.599 22.7107 199.853 22.4731C200.107 22.2356 200.298 21.9414 200.428 21.5905L203.165 21.8982C202.992 22.6216 202.663 23.2532 202.177 23.793C201.697 24.3275 201.081 24.7431 200.331 25.04C199.58 25.3315 198.722 25.4773 197.756 25.4773Z" fill="black"/>
</g>
<defs>
<linearGradient id="paint0_linear_135_455" x1="43.373" y1="17.2344" x2="234.683" y2="60.39" gradientUnits="userSpaceOnUse">
<stop stop-color="#3772FF"/>
<stop offset="1" stop-color="#476FCE"/>
</linearGradient>
<clipPath id="clip0_135_455">
<rect width="204.014" height="33.0402" fill="white" transform="translate(0.359375 0.714264)"/>
</clipPath>
</defs>
</svg>
